#tb 0: 1/25
0,          0,          0,        1,   152064, 0xc7d8832d
0,          1,          1,        1,   152064, 0x8d9ffc59
0,          2,          2,        1,   152064, 0xaf3ea0d1
0,          3,          3,        1,   152064, 0x6805671e
0,          4,          4,        1,   152064, 0x49202ab8
0,          5,          5,        1,   152064, 0x6b06b1ad
0,          6,          6,        1,   152064, 0x909f3e4e
0,          7,          7,        1,   152064, 0xa4ce28ec
0,          8,          8,        1,   152064, 0xc3c5b8bc
0,          9,          9,        1,   152064, 0x78744dac
